<svg xmlns="http://www.w3.org/2000/svg" xmlns:xlink="http://www.w3.org/1999/xlink" xmlns:lucid="lucid" width="860.26" height="1622"><g transform="translate(273.92592592592587 229.33333333333326)" lucid:page-tab-id="-AkzXx9Iz5f9"><path d="M-272.93-222.33a6 6 0 0 1 6-6h108a6 6 0 0 1 6 6v88a6 6 0 0 1-6 6h-108a6 6 0 0 1-6-6z" stroke="#ff80df" stroke-width="2" fill="#fff0fb"/><use xlink:href="#a" transform="matrix(1,0,0,1,-272.92592592592587,-228.33333333333326) translate(36.60993827160494 55.27777777777778)"/><path d="M-212.93-126.83v5.02m0 5.02v10.05m0 5.02v10.04m0 5.02v10.06m0 5.02v10.05m0 5v10.06m0 5.03v10.04m0 5.02v10.05m0 5.04V-1.2m0 5v10.06m0 5.03v10.04m0 5.02V44m0 5.03v10.05m0 5.03v10.06m0 5.02v10.05m0 5.03v10.05m0 5.03v10.05m0 5.03v10.06m0 5.02v10.05m0 5.03v10.05m0 5.03v10.05m0 5.03v10.06m0 5.02v10.05m0 5.02v10.05m0 5.03v10.05m0 5.02v10.05m0 5.03v10.05m0 5.02v10.05m0 5.03v10.05m0 5.02v10.05m0 5.03v10.05m0 5.02v10.05m0 5.02v10.05m0 5.03v10.05m0 5.02v10.05m0 5.03v10.05m0 5.02v10.05m0 5.03v10.05m0 5.02v10.05m0 5.03v10.05m0 5.02v10.05m0 5.02v10.05m0 5.02v10.05m0 5.02v10.05m0 5.02v10.05m0 5.02v10.04m0 5.03v10.05m0 5.02v10.05m0 5.02v10.05m0 5.02v10.04m0 5.02v10.05m0 5.04V647m0 5v10.06m0 5.03v10.04m0 5.02v10.05m0 5.04v10.05m0 5v10.06m0 5.03v10.04m0 5.02v10.05m0 5.03v10.06m0 5v10.06m0 5.02v10.05m0 5.03v10.05m0 5.03v10.05m0 5.03v10.06m0 5.02v10.05m0 5.03v10.05m0 5.03v10.05m0 5.03v10.05m0 5.03v10.05m0 5.02v10.05m0 5.03v10.05m0 5.02v10.05m0 5.03v10.05m0 5.02v10.05m0 5.03v10.05m0 5.02v10.05m0 5.03v10.05m0 5.02V1054m0 5.03v10.05m0 5.02v10.05m0 5.02v10.05m0 5.03v10.05m0 5.02v10.05m0 5.03v10.05m0 5.02v10.05m0 5.03v10.05m0 5.02v10.05m0 5.02v10.04m0 5.03v10.05m0 5.02v10.05m0 5.02v10.05m0 5.02v10.04m0 5.03v10.05m0 5.02v5.03" stroke="#3a414a" fill="none"/><path d="M-212.45-126.82h-.95v-.5h.95zM-212.45 1290.67h-.95v-.52h.95z" stroke="#3a414a" stroke-width=".05" fill="#3a414a"/><path d="M27.07-126.83v5.02m0 5.02v10.05m0 5.02v10.04m0 5.02v10.06m0 5.02v10.05m0 5v10.06m0 5.03v10.04m0 5.02v10.05m0 5.04V-1.2m0 5v10.06m0 5.03v10.04m0 5.02V44m0 5.03v10.05m0 5.03v10.06m0 5.02v10.05m0 5.03v10.05m0 5.03v10.05m0 5.03v10.06m0 5.02v10.05m0 5.03v10.05m0 5.03v10.05m0 5.03v10.06m0 5.02v10.05m0 5.02v10.05m0 5.03v10.05m0 5.02v10.05m0 5.03v10.05m0 5.02v10.05m0 5.03v10.05m0 5.02v10.05m0 5.03v10.05m0 5.02v10.05m0 5.02v10.05m0 5.03v10.05m0 5.02v10.05m0 5.03v10.05m0 5.02v10.05m0 5.03v10.05m0 5.02v10.05m0 5.03v10.05m0 5.02v10.05m0 5.02v10.05m0 5.02v10.05m0 5.02v10.05m0 5.02v10.05m0 5.02v10.04m0 5.03v10.05m0 5.02v10.05m0 5.02v10.05m0 5.02v10.04m0 5.02v10.05m0 5.04V647m0 5v10.06m0 5.03v10.04m0 5.02v10.05m0 5.04v10.05m0 5v10.06m0 5.03v10.04m0 5.02v10.05m0 5.03v10.06m0 5v10.06m0 5.02v10.05m0 5.03v10.05m0 5.03v10.05m0 5.03v10.06m0 5.02v10.05m0 5.03v10.05m0 5.03v10.05m0 5.03v10.05m0 5.03v10.05m0 5.02v10.05m0 5.03v10.05m0 5.02v10.05m0 5.03v10.05m0 5.02v10.05m0 5.03v10.05m0 5.02v10.05m0 5.03v10.05m0 5.02V1054m0 5.03v10.05m0 5.02v10.05m0 5.02v10.05m0 5.03v10.05m0 5.02v10.05m0 5.03v10.05m0 5.02v10.05m0 5.03v10.05m0 5.02v10.05m0 5.02v10.04m0 5.03v10.05m0 5.02v10.05m0 5.02v10.05m0 5.02v10.04m0 5.03v10.05m0 5.02v5.03" stroke="#3a414a" fill="none"/><path d="M27.55-126.82h-.95v-.5h.95zM27.55 1290.67h-.95v-.52h.95z" stroke="#3a414a" stroke-width=".05" fill="#3a414a"/><path d="M269.5-126.83v5.02m0 5.02v10.05m0 5.02v10.04m0 5.02v10.06m0 5.02v10.05m0 5v10.06m0 5.03v10.04m0 5.02v10.05m0 5.04V-1.2m0 5v10.06m0 5.03v10.04m0 5.02V44m0 5.03v10.05m0 5.03v10.06m0 5.02v10.05m0 5.03v10.05m0 5.03v10.05m0 5.03v10.06m0 5.02v10.05m0 5.03v10.05m0 5.03v10.05m0 5.03v10.06m0 5.02v10.05m0 5.02v10.05m0 5.03v10.05m0 5.02v10.05m0 5.03v10.05m0 5.02v10.05m0 5.03v10.05m0 5.02v10.05m0 5.03v10.05m0 5.02v10.05m0 5.02v10.05m0 5.03v10.05m0 5.02v10.05m0 5.03v10.05m0 5.02v10.05m0 5.03v10.05m0 5.02v10.05m0 5.03v10.05m0 5.02v10.05m0 5.02v10.05m0 5.02v10.05m0 5.02v10.05m0 5.02v10.05m0 5.02v10.04m0 5.03v10.05m0 5.02v10.05m0 5.02v10.05m0 5.02v10.04m0 5.02v10.05m0 5.04V647m0 5v10.06m0 5.03v10.04m0 5.02v10.05m0 5.04v10.05m0 5v10.06m0 5.03v10.04m0 5.02v10.05m0 5.03v10.06m0 5v10.06m0 5.02v10.05m0 5.03v10.05m0 5.03v10.05m0 5.03v10.06m0 5.02v10.05m0 5.03v10.05m0 5.03v10.05m0 5.03v10.05m0 5.03v10.05m0 5.02v10.05m0 5.03v10.05m0 5.02v10.05m0 5.03v10.05m0 5.02v10.05m0 5.03v10.05m0 5.02v10.05m0 5.03v10.05m0 5.02V1054m0 5.03v10.05m0 5.02v10.05m0 5.02v10.05m0 5.03v10.05m0 5.02v10.05m0 5.03v10.05m0 5.02v10.05m0 5.03v10.05m0 5.02v10.05m0 5.02v10.04m0 5.03v10.05m0 5.02v10.05m0 5.02v10.05m0 5.02v10.04m0 5.03v10.05m0 5.02v5.03" stroke="#3a414a" fill="none"/><path d="M269.97-126.82h-.95v-.5h.95zM269.97 1290.67h-.95v-.52h.95z" stroke="#3a414a" stroke-width=".05" fill="#3a414a"/><path d="M518.62-126.83v5.02m0 5.02v10.05m0 5.02v10.04m0 5.02v10.06m0 5.02v10.05m0 5v10.06m0 5.03v10.04m0 5.02v10.05m0 5.04V-1.2m0 5v10.06m0 5.03v10.04m0 5.02V44m0 5.03v10.05m0 5.03v10.06m0 5.02v10.05m0 5.03v10.05m0 5.03v10.05m0 5.03v10.06m0 5.02v10.05m0 5.03v10.05m0 5.03v10.05m0 5.03v10.06m0 5.02v10.05m0 5.02v10.05m0 5.03v10.05m0 5.02v10.05m0 5.03v10.05m0 5.02v10.05m0 5.03v10.05m0 5.02v10.05m0 5.03v10.05m0 5.02v10.05m0 5.02v10.05m0 5.03v10.05m0 5.02v10.05m0 5.03v10.05m0 5.02v10.05m0 5.03v10.05m0 5.02v10.05m0 5.03v10.05m0 5.02v10.05m0 5.02v10.05m0 5.02v10.05m0 5.02v10.05m0 5.02v10.05m0 5.02v10.04m0 5.03v10.05m0 5.02v10.05m0 5.02v10.05m0 5.02v10.04m0 5.02v10.05m0 5.04V647m0 5v10.06m0 5.03v10.04m0 5.02v10.05m0 5.04v10.05m0 5v10.06m0 5.03v10.04m0 5.02v10.05m0 5.03v10.06m0 5v10.06m0 5.02v10.05m0 5.03v10.05m0 5.03v10.05m0 5.03v10.06m0 5.02v10.05m0 5.03v10.05m0 5.03v10.05m0 5.03v10.05m0 5.03v10.05m0 5.02v10.05m0 5.03v10.05m0 5.02v10.05m0 5.03v10.05m0 5.02v10.05m0 5.03v10.05m0 5.02v10.05m0 5.03v10.05m0 5.02V1054m0 5.03v10.05m0 5.02v10.05m0 5.02v10.05m0 5.03v10.05m0 5.02v10.05m0 5.03v10.05m0 5.02v10.05m0 5.03v10.05m0 5.02v10.05m0 5.02v10.04m0 5.03v10.05m0 5.02v10.05m0 5.02v10.05m0 5.02v10.04m0 5.03v10.05m0 5.02v5.03" stroke="#3a414a" fill="none"/><path d="M519.1-126.82h-.95v-.5h.95zM519.1 1290.67h-.95v-.52h.95z" stroke="#3a414a" stroke-width=".05" fill="#3a414a"/><path d="M-272.93 1297.67a6 6 0 0 1 6-6h108a6 6 0 0 1 6 6v88a6 6 0 0 1-6 6h-108a6 6 0 0 1-6-6z" stroke="#ff80df" stroke-width="2" fill="#fff0fb"/><use xlink:href="#a" transform="matrix(1,0,0,1,-272.92592592592587,1291.6666666666667) translate(36.60993827160494 55.27777777777778)"/><path d="M-32.93-222.33a6 6 0 0 1 6-6h108a6 6 0 0 1 6 6v88a6 6 0 0 1-6 6h-108a6 6 0 0 1-6-6z" stroke="#ff80df" stroke-width="2" fill="#fff0fb"/><use xlink:href="#b" transform="matrix(1,0,0,1,-32.92592592592587,-228.33333333333326) translate(48.92475308641975 55.27777777777778)"/><path d="M-32.93 1297.67a6 6 0 0 1 6-6h108a6 6 0 0 1 6 6v88a6 6 0 0 1-6 6h-108a6 6 0 0 1-6-6z" stroke="#ff80df" stroke-width="2" fill="#fff0fb"/><use xlink:href="#b" transform="matrix(1,0,0,1,-32.92592592592587,1291.6666666666667) translate(48.92475308641975 55.27777777777778)"/><path d="M207.07-222.33a6 6 0 0 1 6-6H325.9a6 6 0 0 1 6 6v88a6 6 0 0 1-6 6H213.08a6 6 0 0 1-6-6z" stroke="#ff80df" stroke-width="2" fill="#fff0fb"/><use xlink:href="#c" transform="matrix(1,0,0,1,207.07407407407413,-228.33333333333326) translate(19.295123456790115 55.27777777777778)"/><path d="M207.07 1297.67a6 6 0 0 1 6-6H325.9a6 6 0 0 1 6 6v88a6 6 0 0 1-6 6H213.08a6 6 0 0 1-6-6z" stroke="#ff80df" stroke-width="2" fill="#fff0fb"/><use xlink:href="#c" transform="matrix(1,0,0,1,207.07407407407413,1291.6666666666667) translate(19.295123456790115 55.27777777777778)"/><path d="M451.9-222.33a6 6 0 0 1 6-6h121.43a6 6 0 0 1 6 6v88a6 6 0 0 1-6 6H457.9a6 6 0 0 1-6-6z" stroke="#ff80df" stroke-width="2" fill="#fff0fb"/><use xlink:href="#d" transform="matrix(1,0,0,1,451.9135802469136,-228.33333333333326) translate(19.004999999999995 55.27777777777778)"/><path d="M451.9 1297.67a6 6 0 0 1 6-6h121.43a6 6 0 0 1 6 6v88a6 6 0 0 1-6 6H457.9a6 6 0 0 1-6-6z" stroke="#ff80df" stroke-width="2" fill="#fff0fb"/><use xlink:href="#d" transform="matrix(1,0,0,1,451.9135802469136,1291.6666666666667) translate(19.004999999999995 55.27777777777778)"/><path d="M-212.43-67.42H10.7M-212.4-67.42h-.53" stroke="#3a414a" fill="none"/><path d="M25.46-67.42L11.2-62.78v-9.27z" stroke="#3a414a" fill="#3a414a"/><use xlink:href="#e" transform="matrix(1,0,0,1,-205.77671100443374,-97.37927367911982) translate(0 14.217421742174219)"/><use xlink:href="#f" transform="matrix(1,0,0,1,-205.77671100443374,-97.37927367911982) translate(75.87561533931171 14.217421742174219)"/><use xlink:href="#g" transform="matrix(1,0,0,1,-205.77671100443374,-97.37927367911982) translate(137.04014845929038 14.217421742174219)"/><path d="M27.57-7.5H253.1M27.6-7.5h-.53" stroke="#3a414a" fill="none"/><path d="M267.88-7.5L253.6-2.87v-9.27z" stroke="#3a414a" fill="#3a414a"/><use xlink:href="#h" transform="matrix(1,0,0,1,54.710607171827974,-32.82852158039711) translate(0 14.217421742174219)"/><use xlink:href="#i" transform="matrix(1,0,0,1,54.710607171827974,-32.82852158039711) translate(48.279994666133284 14.217421742174219)"/><use xlink:href="#j" transform="matrix(1,0,0,1,54.710607171827974,-32.82852158039711) translate(150.7145436765899 14.217421742174219)"/><path d="M270 52.4h232.24M270 52.4h-.5" stroke="#3a414a" fill="none"/><path d="M517 52.4l-14.26 4.65v-9.27z" stroke="#3a414a" fill="#3a414a"/><use xlink:href="#k" transform="matrix(1,0,0,1,310.75343645475675,27.08697560270139) translate(0 14.217421742174219)"/><use xlink:href="#l" transform="matrix(1,0,0,1,310.75343645475675,27.08697560270139) translate(58.153204209309834 14.217421742174219)"/><use xlink:href="#m" transform="matrix(1,0,0,1,310.75343645475675,27.08697560270139) translate(73.90097343067642 14.217421742174219)"/><use xlink:href="#n" transform="matrix(1,0,0,1,310.75343645475675,27.08697560270139) translate(116.30640841861967 14.217421742174219)"/><path d="M518.12 112.33H285.88M518.1 112.33h.52" stroke="#3a414a" fill="none"/><path d="M271.1 112.33l14.28-4.64v9.26z" stroke="#3a414a" fill="#3a414a"/><use xlink:href="#o" transform="matrix(1,0,0,1,315.76409029791876,87.00247278579994) translate(0 14.217421742174219)"/><use xlink:href="#p" transform="matrix(1,0,0,1,315.76409029791876,87.00247278579994) translate(62.003755931148675 14.217421742174219)"/><use xlink:href="#q" transform="matrix(1,0,0,1,315.76409029791876,87.00247278579994) translate(104.40919091909191 14.217421742174219)"/><path d="M270 172.24h232.24M270 172.24h-.5" stroke="#3a414a" fill="none"/><path d="M517 172.24l-14.26 4.64v-9.27z" stroke="#3a414a" fill="#3a414a"/><use xlink:href="#r" transform="matrix(1,0,0,1,297.9676300963433,146.91796996889846) translate(0 14.217421742174219)"/><use xlink:href="#p" transform="matrix(1,0,0,1,297.9676300963433,146.91796996889846) translate(46.40408485292975 14.217421742174219)"/><use xlink:href="#s" transform="matrix(1,0,0,1,297.9676300963433,146.91796996889846) translate(88.809519840873 14.217421742174219)"/><use xlink:href="#t" transform="matrix(1,0,0,1,297.9676300963433,146.91796996889846) translate(130.1782678267827 14.217421742174219)"/><use xlink:href="#u" transform="matrix(1,0,0,1,297.9676300963433,146.91796996889846) translate(151.80059672633934 14.217421742174219)"/><path d="M269 232.16H43.45M268.98 232.16h.5" stroke="#3a414a" fill="none"/><path d="M28.7 232.16l14.26-4.64v9.27z" stroke="#3a414a" fill="#3a414a"/><use xlink:href="#h" transform="matrix(1,0,0,1,48.6632663266322,206.8334671519971) translate(0 14.217421742174219)"/><use xlink:href="#v" transform="matrix(1,0,0,1,48.6632663266322,206.8334671519971) translate(48.279994666133284 14.217421742174219)"/><use xlink:href="#w" transform="matrix(1,0,0,1,48.6632663266322,206.8334671519971) translate(123.2670211465591 14.217421742174219)"/><path d="M26.57 292.07h-223.1M26.56 292.07h.5" stroke="#3a414a" fill="none"/><path d="M-211.3 292.07l14.26-4.63v9.27z" stroke="#3a414a" fill="#3a414a"/><use xlink:href="#x" transform="matrix(1,0,0,1,-172.70145903479232,266.74896433509565) translate(0 14.217421742174219)"/><use xlink:href="#y" transform="matrix(1,0,0,1,-172.70145903479232,266.74896433509565) translate(52.229278483403895 14.217421742174219)"/><path d="M-212.43 352H10.7M-212.4 352h-.53" stroke="#3a414a" fill="none"/><path d="M25.46 352l-14.27 4.63v-9.27z" stroke="#3a414a" fill="#3a414a"/><use xlink:href="#z" transform="matrix(1,0,0,1,-251.53903723705696,322.02920660257007) translate(0 14.217421742174219)"/><use xlink:href="#A" transform="matrix(1,0,0,1,-251.53903723705696,322.02920660257007) translate(32.5322254447667 14.217421742174219)"/><use xlink:href="#B" transform="matrix(1,0,0,1,-251.53903723705696,322.02920660257007) translate(96.4612572368348 14.217421742174219)"/><use xlink:href="#C" transform="matrix(1,0,0,1,-251.53903723705696,322.02920660257007) translate(174.3115144847818 14.217421742174219)"/><use xlink:href="#D" transform="matrix(1,0,0,1,-251.53903723705696,322.02920660257007) translate(265.0463101865742 14.217421742174219)"/><path d="M27.57 411.9H253.1M27.6 411.9h-.53" stroke="#3a414a" fill="none"/><path d="M267.88 411.9l-14.27 4.64v-9.27z" stroke="#3a414a" fill="#3a414a"/><use xlink:href="#h" transform="matrix(1,0,0,1,73.96336578102232,386.57995870129275) translate(0 14.217421742174219)"/><use xlink:href="#A" transform="matrix(1,0,0,1,73.96336578102232,386.57995870129275) translate(48.279994666133284 14.217421742174219)"/><use xlink:href="#j" transform="matrix(1,0,0,1,73.96336578102232,386.57995870129275) translate(112.20902645820138 14.217421742174219)"/><path d="M270 471.82h232.24M270 471.82h-.5" stroke="#3a414a" fill="none"/><path d="M517 471.82l-14.26 4.64v-9.27z" stroke="#3a414a" fill="#3a414a"/><use xlink:href="#r" transform="matrix(1,0,0,1,320.67601204564926,446.4954558843913) translate(0 14.217421742174219)"/><use xlink:href="#A" transform="matrix(1,0,0,1,320.67601204564926,446.4954558843913) translate(46.40408485292975 14.217421742174219)"/><use xlink:href="#j" transform="matrix(1,0,0,1,320.67601204564926,446.4954558843913) translate(110.33311664499786 14.217421742174219)"/><path d="M269 531.74H43.45M268.98 531.74h.5" stroke="#3a414a" fill="none"/><path d="M28.7 531.74l14.26-4.64v9.27z" stroke="#3a414a" fill="#3a414a"/><use xlink:href="#h" transform="matrix(1,0,0,1,48.66326632663231,506.4109530674899) translate(0 14.217421742174219)"/><use xlink:href="#v" transform="matrix(1,0,0,1,48.66326632663231,506.4109530674899) translate(48.279994666133284 14.217421742174219)"/><use xlink:href="#w" transform="matrix(1,0,0,1,48.66326632663231,506.4109530674899) translate(123.2670211465591 14.217421742174219)"/><path d="M26.57 591.65h-223.1M26.56 591.65h.5" stroke="#3a414a" fill="none"/><path d="M-211.3 591.65l14.26-4.63v9.27z" stroke="#3a414a" fill="#3a414a"/><use xlink:href="#x" transform="matrix(1,0,0,1,-185.43789934549005,566.3264502505886) translate(0 14.217421742174219)"/><use xlink:href="#E" transform="matrix(1,0,0,1,-185.43789934549005,566.3264502505886) translate(52.229278483403895 14.217421742174219)"/><use xlink:href="#F" transform="matrix(1,0,0,1,-185.43789934549005,566.3264502505886) translate(126.03151981864855 14.217421742174219)"/><path d="M-212.43 651.57H10.7M-212.4 651.57h-.53" stroke="#3a414a" fill="none"/><path d="M25.46 651.57L11.2 656.2v-9.27z" stroke="#3a414a" fill="#3a414a"/><use xlink:href="#G" transform="matrix(1,0,0,1,-240.16016323854603,621.6066925180629) translate(0 14.217421742174219)"/><use xlink:href="#H" transform="matrix(1,0,0,1,-240.16016323854603,621.6066925180629) translate(51.291323576802135 14.217421742174219)"/><use xlink:href="#I" transform="matrix(1,0,0,1,-240.16016323854603,621.6066925180629) translate(134.96677445522332 14.217421742174219)"/><use xlink:href="#J" transform="matrix(1,0,0,1,-240.16016323854603,621.6066925180629) translate(214.69294151637388 14.217421742174219)"/><path d="M27.57 711.48H253.1M27.6 711.48h-.53" stroke="#3a414a" fill="none"/><path d="M267.88 711.48l-14.27 4.64v-9.27z" stroke="#3a414a" fill="#3a414a"/><use xlink:href="#h" transform="matrix(1,0,0,1,64.09015623784583,686.1574446167856) translate(0 14.217421742174219)"/><use xlink:href="#H" transform="matrix(1,0,0,1,64.09015623784583,686.1574446167856) translate(48.279994666133284 14.217421742174219)"/><use xlink:href="#j" transform="matrix(1,0,0,1,64.09015623784583,686.1574446167856) translate(131.95544554455446 14.217421742174219)"/><path d="M270 771.4h232.24M270 771.4h-.5" stroke="#3a414a" fill="none"/><path d="M517 771.4l-14.26 4.63v-9.27z" stroke="#3a414a" fill="#3a414a"/><use xlink:href="#r" transform="matrix(1,0,0,1,310.802802502473,746.0729417998842) translate(0 14.217421742174219)"/><use xlink:href="#H" transform="matrix(1,0,0,1,310.802802502473,746.0729417998842) translate(46.40408485292975 14.217421742174219)"/><use xlink:href="#j" transform="matrix(1,0,0,1,310.802802502473,746.0729417998842) translate(130.07953573135094 14.217421742174219)"/><path d="M270 831.32h232.24M270 831.32h-.5" stroke="#3a414a" fill="none"/><path d="M517 831.32l-14.26 4.63v-9.27z" stroke="#3a414a" fill="#3a414a"/><g><use xlink:href="#K" transform="matrix(1,0,0,1,303.47194441666426,805.9884389829828) translate(0 14.217421742174219)"/><use xlink:href="#L" transform="matrix(1,0,0,1,303.47194441666426,805.9884389829828) translate(81.79954106521764 14.217421742174219)"/><use xlink:href="#F" transform="matrix(1,0,0,1,303.47194441666426,805.9884389829828) translate(122.18096809680969 14.217421742174219)"/></g><path d="M269 891.23H43.45M268.98 891.23h.5" stroke="#3a414a" fill="none"/><path d="M28.7 891.23l14.26-4.63v9.26z" stroke="#3a414a" fill="#3a414a"/><g><use xlink:href="#h" transform="matrix(1,0,0,1,61.15287639875078,865.9039361660813) translate(0 14.217421742174219)"/><use xlink:href="#E" transform="matrix(1,0,0,1,61.15287639875078,865.9039361660813) translate(48.279994666133284 14.217421742174219)"/><use xlink:href="#q" transform="matrix(1,0,0,1,61.15287639875078,865.9039361660813) translate(122.08223600137794 14.217421742174219)"/></g><path d="M26.57 951.15h-223.1M26.56 951.15h.5" stroke="#3a414a" fill="none"/><path d="M-211.3 951.15l14.26-4.64v9.28z" stroke="#3a414a" fill="#3a414a"/><g><use xlink:href="#x" transform="matrix(1,0,0,1,-195.31110888866664,925.8194333491798) translate(0 14.217421742174219)"/><use xlink:href="#E" transform="matrix(1,0,0,1,-195.31110888866664,925.8194333491798) translate(52.229278483403895 14.217421742174219)"/><use xlink:href="#M" transform="matrix(1,0,0,1,-195.31110888866664,925.8194333491798) translate(126.03151981864855 14.217421742174219)"/></g><path d="M-212.43 1011.06H10.7M-212.4 1011.06h-.53" stroke="#3a414a" fill="none"/><path d="M25.46 1011.06l-14.27 4.64v-9.27z" stroke="#3a414a" fill="#3a414a"/><g><use xlink:href="#N" transform="matrix(1,0,0,1,-270.7177467746774,981.0996756166544) translate(0 14.217421742174219)"/><use xlink:href="#O" transform="matrix(1,0,0,1,-270.7177467746774,981.0996756166544) translate(74.83892833727816 14.217421742174219)"/><use xlink:href="#P" transform="matrix(1,0,0,1,-270.7177467746774,981.0996756166544) translate(151.70186463090752 14.217421742174219)"/><use xlink:href="#Q" transform="matrix(1,0,0,1,-270.7177467746774,981.0996756166544) translate(207.83106088386614 14.217421742174219)"/><use xlink:href="#R" transform="matrix(1,0,0,1,-270.7177467746774,981.0996756166544) translate(255.12373459568178 14.217421742174219)"/><use xlink:href="#S" transform="matrix(1,0,0,1,-270.7177467746774,981.0996756166544) translate(313.27693880499163 14.217421742174219)"/></g><path d="M27.57 1070.98H253.1M27.6 1070.98h-.53" stroke="#3a414a" fill="none"/><path d="M267.88 1070.98l-14.27 4.63v-9.26z" stroke="#3a414a" fill="#3a414a"/><g><use xlink:href="#h" transform="matrix(1,0,0,1,64.06547321398811,1045.6504277153765) translate(0 14.217421742174219)"/><use xlink:href="#T" transform="matrix(1,0,0,1,64.06547321398811,1045.6504277153765) translate(48.279994666133284 14.217421742174219)"/><use xlink:href="#U" transform="matrix(1,0,0,1,64.06547321398811,1045.6504277153765) translate(104.40919091909191 14.217421742174219)"/></g><path d="M270 1130.9h232.24M270 1130.9h-.5" stroke="#3a414a" fill="none"/><path d="M517 1130.9l-14.26 4.63v-9.27z" stroke="#3a414a" fill="#3a414a"/><g><use xlink:href="#V" transform="matrix(1,0,0,1,309.2971380471386,1105.5659248984753) translate(0 14.217421742174219)"/><use xlink:href="#O" transform="matrix(1,0,0,1,309.2971380471386,1105.5659248984753) translate(56.2279283483904 14.217421742174219)"/><use xlink:href="#j" transform="matrix(1,0,0,1,309.2971380471386,1105.5659248984753) translate(133.09086464201977 14.217421742174219)"/></g><path d="M269 1190.8H43.45M268.98 1190.8h.5" stroke="#3a414a" fill="none"/><path d="M28.7 1190.8l14.26-4.63v9.27z" stroke="#3a414a" fill="#3a414a"/><g><use xlink:href="#h" transform="matrix(1,0,0,1,77.86328355057734,1165.4814220815738) translate(0 14.217421742174219)"/><use xlink:href="#T" transform="matrix(1,0,0,1,77.86328355057734,1165.4814220815738) translate(48.279994666133284 14.217421742174219)"/><use xlink:href="#j" transform="matrix(1,0,0,1,77.86328355057734,1165.4814220815738) translate(104.40919091909191 14.217421742174219)"/></g><path d="M26.57 1250.72h-223.1M26.56 1250.72h.5" stroke="#3a414a" fill="none"/><path d="M-211.3 1250.72l14.26-4.63v9.26z" stroke="#3a414a" fill="#3a414a"/><g><use xlink:href="#x" transform="matrix(1,0,0,1,-144.636860908313,1225.3969192646723) translate(0 14.217421742174219)"/><use xlink:href="#W" transform="matrix(1,0,0,1,-144.636860908313,1225.3969192646723) translate(52.229278483403895 14.217421742174219)"/></g><defs><path d="M232-93c-1 65-40 97-104 97C67 4 28-28 28-90v-158h33c8 89-33 224 67 224 102 0 64-133 71-224h33v155" id="X"/><path d="M135-143c-3-34-86-38-87 0 15 53 115 12 119 90S17 21 10-45l28-5c4 36 97 45 98 0-10-56-113-15-118-90-4-57 82-63 122-42 12 7 21 19 24 35" id="Y"/><path d="M100-194c63 0 86 42 84 106H49c0 40 14 67 53 68 26 1 43-12 49-29l28 8c-11 28-37 45-77 45C44 4 14-33 15-96c1-61 26-98 85-98zm52 81c6-60-76-77-97-28-3 7-6 17-6 28h103" id="Z"/><path d="M114-163C36-179 61-72 57 0H25l-1-190h30c1 12-1 29 2 39 6-27 23-49 58-41v29" id="aa"/><g id="a"><use transform="matrix(0.06172839506172839,0,0,0.06172839506172839,0,0)" xlink:href="#X"/><use transform="matrix(0.06172839506172839,0,0,0.06172839506172839,15.987654320987653,0)" xlink:href="#Y"/><use transform="matrix(0.06172839506172839,0,0,0.06172839506172839,27.098765432098766,0)" xlink:href="#Z"/><use transform="matrix(0.06172839506172839,0,0,0.06172839506172839,39.44444444444444,0)" xlink:href="#aa"/></g><path d="M33 0v-248h34V0H33" id="ab"/><g id="b"><use transform="matrix(0.06172839506172839,0,0,0.06172839506172839,0,0)" xlink:href="#X"/><use transform="matrix(0.06172839506172839,0,0,0.06172839506172839,15.987654320987653,0)" xlink:href="#ab"/></g><path d="M160-131c35 5 61 23 61 61C221 17 115-2 30 0v-248c76 3 177-17 177 60 0 33-19 50-47 57zm-97-11c50-1 110 9 110-42 0-47-63-36-110-37v79zm0 115c55-2 124 14 124-45 0-56-70-42-124-44v89" id="ac"/><path d="M141-36C126-15 110 5 73 4 37 3 15-17 15-53c-1-64 63-63 125-63 3-35-9-54-41-54-24 1-41 7-42 31l-33-3c5-37 33-52 76-52 45 0 72 20 72 64v82c-1 20 7 32 28 27v20c-31 9-61-2-59-35zM48-53c0 20 12 33 32 33 41-3 63-29 60-74-43 2-92-5-92 41" id="ad"/><path d="M96-169c-40 0-48 33-48 73s9 75 48 75c24 0 41-14 43-38l32 2c-6 37-31 61-74 61-59 0-76-41-82-99-10-93 101-131 147-64 4 7 5 14 7 22l-32 3c-4-21-16-35-41-35" id="ae"/><path d="M143 0L79-87 56-68V0H24v-261h32v163l83-92h37l-77 82L181 0h-38" id="af"/><path d="M117-194c89-4 53 116 60 194h-32v-121c0-31-8-49-39-48C34-167 62-67 57 0H25l-1-190h30c1 10-1 24 2 32 11-22 29-35 61-36" id="ag"/><path d="M85-194c31 0 48 13 60 33l-1-100h32l1 261h-30c-2-10 0-23-3-31C134-8 116 4 85 4 32 4 16-35 15-94c0-66 23-100 70-100zm9 24c-40 0-46 34-46 75 0 40 6 74 45 74 42 0 51-32 51-76 0-42-9-74-50-73" id="ah"/><g id="c"><use transform="matrix(0.06172839506172839,0,0,0.06172839506172839,0,0)" xlink:href="#ac"/><use transform="matrix(0.06172839506172839,0,0,0.06172839506172839,14.814814814814813,0)" xlink:href="#ad"/><use transform="matrix(0.06172839506172839,0,0,0.06172839506172839,27.160493827160494,0)" xlink:href="#ae"/><use transform="matrix(0.06172839506172839,0,0,0.06172839506172839,38.27160493827161,0)" xlink:href="#af"/><use transform="matrix(0.06172839506172839,0,0,0.06172839506172839,49.38271604938272,0)" xlink:href="#Z"/><use transform="matrix(0.06172839506172839,0,0,0.06172839506172839,61.7283950617284,0)" xlink:href="#ag"/><use transform="matrix(0.06172839506172839,0,0,0.06172839506172839,74.07407407407408,0)" xlink:href="#ah"/></g><path d="M30-248c118-7 216 8 213 122C240-48 200 0 122 0H30v-248zM63-27c89 8 146-16 146-99s-60-101-146-95v194" id="ai"/><path d="M59-47c-2 24 18 29 38 22v24C64 9 27 4 27-40v-127H5v-23h24l9-43h21v43h35v23H59v120" id="aj"/><path d="M115-194c53 0 69 39 70 98 0 66-23 100-70 100C84 3 66-7 56-30L54 0H23l1-261h32v101c10-23 28-34 59-34zm-8 174c40 0 45-34 45-75 0-40-5-75-45-74-42 0-51 32-51 76 0 43 10 73 51 73" id="ak"/><g id="d"><use transform="matrix(0.06172839506172839,0,0,0.06172839506172839,0,0)" xlink:href="#ai"/><use transform="matrix(0.06172839506172839,0,0,0.06172839506172839,15.987654320987653,0)" xlink:href="#ad"/><use transform="matrix(0.06172839506172839,0,0,0.06172839506172839,28.333333333333332,0)" xlink:href="#aj"/><use transform="matrix(0.06172839506172839,0,0,0.06172839506172839,34.50617283950617,0)" xlink:href="#ad"/><use transform="matrix(0.06172839506172839,0,0,0.06172839506172839,46.85185185185185,0)" xlink:href="#ak"/><use transform="matrix(0.06172839506172839,0,0,0.06172839506172839,59.197530864197525,0)" xlink:href="#ad"/><use transform="matrix(0.06172839506172839,0,0,0.06172839506172839,71.5432098765432,0)" xlink:href="#Y"/><use transform="matrix(0.06172839506172839,0,0,0.06172839506172839,82.65432098765432,0)" xlink:href="#Z"/></g><path fill="#3a414a" d="M240-174c0 40-23 61-54 70L253 0h-59l-57-94H76V0H24v-248c93 4 217-23 216 74zM76-134c48-2 112 12 112-38 0-48-66-32-112-35v73" id="al"/><path fill="#3a414a" d="M185-48c-13 30-37 53-82 52C43 2 14-33 14-96s30-98 90-98c62 0 83 45 84 108H66c0 31 8 55 39 56 18 0 30-7 34-22zm-45-69c5-46-57-63-70-21-2 6-4 13-4 21h74" id="am"/><path fill="#3a414a" d="M195-6C206 82 75 100 31 46c-4-6-6-13-8-21l49-6c3 16 16 24 34 25 40 0 42-37 40-79-11 22-30 35-61 35-53 0-70-43-70-97 0-56 18-96 73-97 30 0 46 14 59 34l2-30h47zm-90-29c32 0 41-27 41-63 0-35-9-62-40-62-32 0-39 29-40 63 0 36 9 62 39 62" id="an"/><path fill="#3a414a" d="M25-224v-37h50v37H25zM25 0v-190h50V0H25" id="ao"/><path fill="#3a414a" d="M137-138c1-29-70-34-71-4 15 46 118 7 119 86 1 83-164 76-172 9l43-7c4 19 20 25 44 25 33 8 57-30 24-41C81-84 22-81 20-136c-2-80 154-74 161-7" id="ap"/><path fill="#3a414a" d="M115-3C79 11 28 4 28-45v-112H4v-33h27l15-45h31v45h36v33H77v99c-1 23 16 31 38 25v30" id="aq"/><path fill="#3a414a" d="M135-150c-39-12-60 13-60 57V0H25l-1-190h47c2 13-1 29 3 40 6-28 27-53 61-41v41" id="ar"/><g id="e"><use transform="matrix(0.049366047715882704,0,0,0.049366047715882704,0,0)" xlink:href="#al"/><use transform="matrix(0.049366047715882704,0,0,0.049366047715882704,12.78580635841362,0)" xlink:href="#am"/><use transform="matrix(0.049366047715882704,0,0,0.049366047715882704,22.65901590159016,0)" xlink:href="#an"/><use transform="matrix(0.049366047715882704,0,0,0.049366047715882704,33.47018035136847,0)" xlink:href="#ao"/><use transform="matrix(0.049366047715882704,0,0,0.049366047715882704,38.40678512295674,0)" xlink:href="#ap"/><use transform="matrix(0.049366047715882704,0,0,0.049366047715882704,48.279994666133284,0)" xlink:href="#aq"/><use transform="matrix(0.049366047715882704,0,0,0.049366047715882704,54.15455434432332,0)" xlink:href="#am"/><use transform="matrix(0.049366047715882704,0,0,0.049366047715882704,64.02776388749986,0)" xlink:href="#ar"/></g><path fill="#3a414a" d="M67-93c0 74 22 123 53 168H70C40 30 18-18 18-93s22-123 52-168h50c-32 44-53 94-53 168" id="as"/><path fill="#3a414a" d="M220-157c-53 9-28 100-34 157h-49v-107c1-27-5-49-29-50C55-147 81-57 75 0H25l-1-190h47c2 12-1 28 3 38 10-53 101-56 108 0 13-22 24-43 59-42 82 1 51 116 57 194h-49v-107c-1-25-5-48-29-50" id="at"/><path fill="#3a414a" d="M133-34C117-15 103 5 69 4 32 3 11-16 11-54c-1-60 55-63 116-61 1-26-3-47-28-47-18 1-26 9-28 27l-52-2c7-38 36-58 82-57s74 22 75 68l1 82c-1 14 12 18 25 15v27c-30 8-71 5-69-32zm-48 3c29 0 43-24 42-57-32 0-66-3-65 30 0 17 8 27 23 27" id="au"/><path fill="#3a414a" d="M25 0v-261h50V0H25" id="av"/><path fill="#3a414a" d="M76-54c-1 42 2 86-19 110H24C36 42 46 24 48 0H25v-54h51" id="aw"/><g id="f"><use transform="matrix(0.049366047715882704,0,0,0.049366047715882704,0,0)" xlink:href="#as"/><use transform="matrix(0.049366047715882704,0,0,0.049366047715882704,5.8745596781900415,0)" xlink:href="#am"/><use transform="matrix(0.049366047715882704,0,0,0.049366047715882704,15.747769221366582,0)" xlink:href="#at"/><use transform="matrix(0.049366047715882704,0,0,0.049366047715882704,31.54490449044905,0)" xlink:href="#au"/><use transform="matrix(0.049366047715882704,0,0,0.049366047715882704,41.41811403362559,0)" xlink:href="#ao"/><use transform="matrix(0.049366047715882704,0,0,0.049366047715882704,46.354718805213864,0)" xlink:href="#av"/><use transform="matrix(0.049366047715882704,0,0,0.049366047715882704,51.29132357680214,0)" xlink:href="#aw"/></g><path fill="#3a414a" d="M135-194c53 0 70 44 70 98 0 56-19 98-73 100-31 1-45-17-59-34 3 33 2 69 2 105H25l-1-265h48c2 10 0 23 3 31 11-24 29-35 60-35zM114-30c33 0 39-31 40-66 0-38-9-64-40-64-56 0-55 130 0 130" id="ax"/><path fill="#3a414a" d="M231 0h-52l-39-155L100 0H48L-1-190h46L77-45c9-52 24-97 36-145h53l37 145 32-145h46" id="ay"/><path fill="#3a414a" d="M110-194c64 0 96 36 96 99 0 64-35 99-97 99-61 0-95-36-95-99 0-62 34-99 96-99zm-1 164c35 0 45-28 45-65 0-40-10-65-43-65-34 0-45 26-45 65 0 36 10 65 43 65" id="az"/><path fill="#3a414a" d="M88-194c31-1 46 15 58 34l-1-101h50l1 261h-48c-2-10 0-23-3-31C134-8 116 4 84 4 32 4 16-41 15-95c0-56 19-97 73-99zm17 164c33 0 40-30 41-66 1-37-9-64-41-64s-38 30-39 65c0 43 13 65 39 65" id="aA"/><path fill="#3a414a" d="M102-93c0 74-22 123-52 168H0C30 29 54-18 53-93c0-74-22-123-53-168h50c30 45 52 94 52 168" id="aB"/><g id="g"><use transform="matrix(0.049366047715882704,0,0,0.049366047715882704,0,0)" xlink:href="#ax"/><use transform="matrix(0.049366047715882704,0,0,0.049366047715882704,10.811164449778312,0)" xlink:href="#au"/><use transform="matrix(0.049366047715882704,0,0,0.049366047715882704,20.684373992954853,0)" xlink:href="#ap"/><use transform="matrix(0.049366047715882704,0,0,0.049366047715882704,30.5575835361314,0)" xlink:href="#ap"/><use transform="matrix(0.049366047715882704,0,0,0.049366047715882704,40.43079307930794,0)" xlink:href="#ay"/><use transform="matrix(0.049366047715882704,0,0,0.049366047715882704,54.253286439755094,0)" xlink:href="#az"/><use transform="matrix(0.049366047715882704,0,0,0.049366047715882704,65.0644508895334,0)" xlink:href="#ar"/><use transform="matrix(0.049366047715882704,0,0,0.049366047715882704,71.97569756975699,0)" xlink:href="#aA"/><use transform="matrix(0.049366047715882704,0,0,0.049366047715882704,82.7868620195353,0)" xlink:href="#aB"/></g><path fill="#3a414a" d="M169-182c-1-43-94-46-97-3 18 66 151 10 154 114 3 95-165 93-204 36-6-8-10-19-12-30l50-8c3 46 112 56 116 5-17-69-150-10-154-114-4-87 153-88 188-35 5 8 8 18 10 28" id="aC"/><path fill="#3a414a" d="M135-194c87-1 58 113 63 194h-50c-7-57 23-157-34-157-59 0-34 97-39 157H25l-1-190h47c2 12-1 28 3 38 12-26 28-41 61-42" id="aD"/><g id="h"><use transform="matrix(0.049366047715882704,0,0,0.049366047715882704,0,0)" xlink:href="#aC"/><use transform="matrix(0.049366047715882704,0,0,0.049366047715882704,11.847851451811849,0)" xlink:href="#am"/><use transform="matrix(0.049366047715882704,0,0,0.049366047715882704,21.72106099498839,0)" xlink:href="#aD"/><use transform="matrix(0.049366047715882704,0,0,0.049366047715882704,32.5322254447667,0)" xlink:href="#aA"/></g><g id="i"><use transform="matrix(0.049366047715882704,0,0,0.049366047715882704,0,0)" xlink:href="#ar"/><use transform="matrix(0.049366047715882704,0,0,0.049366047715882704,6.911246680223578,0)" xlink:href="#am"/><use transform="matrix(0.049366047715882704,0,0,0.049366047715882704,16.78445622340012,0)" xlink:href="#an"/><use transform="matrix(0.049366047715882704,0,0,0.049366047715882704,27.59562067317843,0)" xlink:href="#ao"/><use transform="matrix(0.049366047715882704,0,0,0.049366047715882704,32.5322254447667,0)" xlink:href="#ap"/><use transform="matrix(0.049366047715882704,0,0,0.049366047715882704,42.405434987943245,0)" xlink:href="#aq"/><use transform="matrix(0.049366047715882704,0,0,0.049366047715882704,48.279994666133284,0)" xlink:href="#ar"/><use transform="matrix(0.049366047715882704,0,0,0.049366047715882704,55.19124134635686,0)" xlink:href="#au"/><use transform="matrix(0.049366047715882704,0,0,0.049366047715882704,65.0644508895334,0)" xlink:href="#aq"/><use transform="matrix(0.049366047715882704,0,0,0.049366047715882704,70.93901056772344,0)" xlink:href="#ao"/><use transform="matrix(0.049366047715882704,0,0,0.049366047715882704,75.87561533931171,0)" xlink:href="#az"/><use transform="matrix(0.049366047715882704,0,0,0.049366047715882704,86.68677978909002,0)" xlink:href="#aD"/></g><g id="j"><use transform="matrix(0.049366047715882704,0,0,0.049366047715882704,0,0)" xlink:href="#aA"/><use transform="matrix(0.049366047715882704,0,0,0.049366047715882704,10.811164449778312,0)" xlink:href="#au"/><use transform="matrix(0.049366047715882704,0,0,0.049366047715882704,20.684373992954853,0)" xlink:href="#aq"/><use transform="matrix(0.049366047715882704,0,0,0.049366047715882704,26.558933671144896,0)" xlink:href="#au"/></g><path fill="#3a414a" d="M67-125c0 53 21 87 73 88 37 1 54-22 65-47l45 17C233-25 199 4 140 4 58 4 20-42 15-125 8-235 124-281 211-232c18 10 29 29 36 50l-46 12c-8-25-30-41-62-41-52 0-71 34-72 86" id="aE"/><path fill="#3a414a" d="M114-157C55-157 80-60 75 0H25v-261h50l-1 109c12-26 28-41 61-42 86-1 58 113 63 194h-50c-7-57 23-157-34-157" id="aF"/><path fill="#3a414a" d="M190-63c-7 42-38 67-86 67-59 0-84-38-90-98-12-110 154-137 174-36l-49 2c-2-19-15-32-35-32-30 0-35 28-38 64-6 74 65 87 74 30" id="aG"/><path fill="#3a414a" d="M147 0L96-86 75-71V0H25v-261h50v150l67-79h53l-66 74L201 0h-54" id="aH"/><g id="k"><use transform="matrix(0.049366047715882704,0,0,0.049366047715882704,0,0)" xlink:href="#aE"/><use transform="matrix(0.049366047715882704,0,0,0.049366047715882704,12.78580635841362,0)" xlink:href="#aF"/><use transform="matrix(0.049366047715882704,0,0,0.049366047715882704,23.596970808191934,0)" xlink:href="#am"/><use transform="matrix(0.049366047715882704,0,0,0.049366047715882704,33.47018035136848,0)" xlink:href="#aG"/><use transform="matrix(0.049366047715882704,0,0,0.049366047715882704,43.34338989454502,0)" xlink:href="#aH"/></g><path fill="#3a414a" d="M121-226c-27-7-43 5-38 36h38v33H83V0H34v-157H6v-33h28c-9-59 32-81 87-68v32" id="aI"/><g id="l"><use transform="matrix(0.049366047715882704,0,0,0.049366047715882704,0,0)" xlink:href="#ao"/><use transform="matrix(0.049366047715882704,0,0,0.049366047715882704,4.936604771588271,0)" xlink:href="#aI"/></g><path fill="#3a414a" d="M85 4C-2 5 27-109 22-190h50c7 57-23 150 33 157 60-5 35-97 40-157h50l1 190h-47c-2-12 1-28-3-38-12 25-28 42-61 42" id="aJ"/><g id="m"><use transform="matrix(0.049366047715882704,0,0,0.049366047715882704,0,0)" xlink:href="#aJ"/><use transform="matrix(0.049366047715882704,0,0,0.049366047715882704,10.811164449778312,0)" xlink:href="#ap"/><use transform="matrix(0.049366047715882704,0,0,0.049366047715882704,20.684373992954853,0)" xlink:href="#am"/><use transform="matrix(0.049366047715882704,0,0,0.049366047715882704,30.5575835361314,0)" xlink:href="#ar"/></g><path fill="#3a414a" d="M144 0l-44-69L55 0H2l70-98-66-92h53l41 62 40-62h54l-67 91 71 99h-54" id="aK"/><g id="n"><use transform="matrix(0.049366047715882704,0,0,0.049366047715882704,0,0)" xlink:href="#am"/><use transform="matrix(0.049366047715882704,0,0,0.049366047715882704,9.873209543176541,0)" xlink:href="#aK"/><use transform="matrix(0.049366047715882704,0,0,0.049366047715882704,19.746419086353082,0)" xlink:href="#ao"/><use transform="matrix(0.049366047715882704,0,0,0.049366047715882704,24.683023857941354,0)" xlink:href="#ap"/><use transform="matrix(0.049366047715882704,0,0,0.049366047715882704,34.55623340111789,0)" xlink:href="#aq"/><use transform="matrix(0.049366047715882704,0,0,0.049366047715882704,40.43079307930793,0)" xlink:href="#ap"/></g><g id="o"><use transform="matrix(0.049366047715882704,0,0,0.049366047715882704,0,0)" xlink:href="#al"/><use transform="matrix(0.049366047715882704,0,0,0.049366047715882704,12.78580635841362,0)" xlink:href="#am"/><use transform="matrix(0.049366047715882704,0,0,0.049366047715882704,22.65901590159016,0)" xlink:href="#aq"/><use transform="matrix(0.049366047715882704,0,0,0.049366047715882704,28.5335755797802,0)" xlink:href="#aJ"/><use transform="matrix(0.049366047715882704,0,0,0.049366047715882704,39.344740029558515,0)" xlink:href="#ar"/><use transform="matrix(0.049366047715882704,0,0,0.049366047715882704,46.25598670978209,0)" xlink:href="#aD"/></g><g id="p"><use transform="matrix(0.049366047715882704,0,0,0.049366047715882704,0,0)" xlink:href="#aJ"/><use transform="matrix(0.049366047715882704,0,0,0.049366047715882704,10.811164449778312,0)" xlink:href="#ap"/><use transform="matrix(0.049366047715882704,0,0,0.049366047715882704,20.684373992954853,0)" xlink:href="#am"/><use transform="matrix(0.049366047715882704,0,0,0.049366047715882704,30.5575835361314,0)" xlink:href="#ar"/></g><g id="q"><use transform="matrix(0.049366047715882704,0,0,0.049366047715882704,0,0)" xlink:href="#ap"/><use transform="matrix(0.049366047715882704,0,0,0.049366047715882704,9.873209543176541,0)" xlink:href="#aq"/><use transform="matrix(0.049366047715882704,0,0,0.049366047715882704,15.747769221366582,0)" xlink:href="#au"/><use transform="matrix(0.049366047715882704,0,0,0.049366047715882704,25.620978764543125,0)" xlink:href="#aq"/><use transform="matrix(0.049366047715882704,0,0,0.049366047715882704,31.495538442733164,0)" xlink:href="#aJ"/><use transform="matrix(0.049366047715882704,0,0,0.049366047715882704,42.30670289251148,0)" xlink:href="#ap"/></g><path fill="#3a414a" d="M128 0H69L1-190h53L99-40l48-150h52" id="aL"/><g id="r"><use transform="matrix(0.049366047715882704,0,0,0.049366047715882704,0,0)" xlink:href="#aC"/><use transform="matrix(0.049366047715882704,0,0,0.049366047715882704,11.847851451811849,0)" xlink:href="#au"/><use transform="matrix(0.049366047715882704,0,0,0.049366047715882704,21.72106099498839,0)" xlink:href="#aL"/><use transform="matrix(0.049366047715882704,0,0,0.049366047715882704,31.594270538164935,0)" xlink:href="#am"/></g><g id="s"><use transform="matrix(0.049366047715882704,0,0,0.049366047715882704,0,0)" xlink:href="#aA"/><use transform="matrix(0.049366047715882704,0,0,0.049366047715882704,10.811164449778312,0)" xlink:href="#au"/><use transform="matrix(0.049366047715882704,0,0,0.049366047715882704,20.684373992954853,0)" xlink:href="#aq"/><use transform="matrix(0.049366047715882704,0,0,0.049366047715882704,26.558933671144896,0)" xlink:href="#au"/></g><g id="t"><use transform="matrix(0.049366047715882704,0,0,0.049366047715882704,0,0)" xlink:href="#as"/><use transform="matrix(0.049366047715882704,0,0,0.049366047715882704,5.8745596781900415,0)" xlink:href="#ao"/><use transform="matrix(0.049366047715882704,0,0,0.049366047715882704,10.811164449778312,0)" xlink:href="#aI"/></g><g id="u"><use transform="matrix(0.049366047715882704,0,0,0.049366047715882704,0,0)" xlink:href="#aD"/><use transform="matrix(0.049366047715882704,0,0,0.049366047715882704,10.811164449778312,0)" xlink:href="#am"/><use transform="matrix(0.049366047715882704,0,0,0.049366047715882704,20.684373992954853,0)" xlink:href="#ay"/><use transform="matrix(0.049366047715882704,0,0,0.049366047715882704,34.50686735340201,0)" xlink:href="#aB"/></g><g id="v"><use transform="matrix(0.049366047715882704,0,0,0.049366047715882704,0,0)" xlink:href="#ap"/><use transform="matrix(0.049366047715882704,0,0,0.049366047715882704,9.873209543176541,0)" xlink:href="#aJ"/><use transform="matrix(0.049366047715882704,0,0,0.049366047715882704,20.684373992954853,0)" xlink:href="#aG"/><use transform="matrix(0.049366047715882704,0,0,0.049366047715882704,30.5575835361314,0)" xlink:href="#aG"/><use transform="matrix(0.049366047715882704,0,0,0.049366047715882704,40.43079307930794,0)" xlink:href="#am"/><use transform="matrix(0.049366047715882704,0,0,0.049366047715882704,50.30400262248448,0)" xlink:href="#ap"/><use transform="matrix(0.049366047715882704,0,0,0.049366047715882704,60.177212165661025,0)" xlink:href="#ap"/></g><g id="w"><use transform="matrix(0.049366047715882704,0,0,0.049366047715882704,0,0)" xlink:href="#at"/><use transform="matrix(0.049366047715882704,0,0,0.049366047715882704,15.797135269082466,0)" xlink:href="#am"/><use transform="matrix(0.049366047715882704,0,0,0.049366047715882704,25.670344812259007,0)" xlink:href="#ap"/><use transform="matrix(0.049366047715882704,0,0,0.049366047715882704,35.543554355435546,0)" xlink:href="#ap"/><use transform="matrix(0.049366047715882704,0,0,0.049366047715882704,45.41676389861209,0)" xlink:href="#au"/><use transform="matrix(0.049366047715882704,0,0,0.049366047715882704,55.289973441788625,0)" xlink:href="#an"/><use transform="matrix(0.049366047715882704,0,0,0.049366047715882704,66.10113789156695,0)" xlink:href="#am"/></g><g id="x"><use transform="matrix(0.049366047715882704,0,0,0.049366047715882704,0,0)" xlink:href="#aC"/><use transform="matrix(0.049366047715882704,0,0,0.049366047715882704,11.847851451811849,0)" xlink:href="#aF"/><use transform="matrix(0.049366047715882704,0,0,0.049366047715882704,22.65901590159016,0)" xlink:href="#az"/><use transform="matrix(0.049366047715882704,0,0,0.049366047715882704,33.47018035136847,0)" xlink:href="#ay"/></g><g id="y"><use transform="matrix(0.049366047715882704,0,0,0.049366047715882704,0,0)" xlink:href="#aG"/><use transform="matrix(0.049366047715882704,0,0,0.049366047715882704,9.873209543176541,0)" xlink:href="#az"/><use transform="matrix(0.049366047715882704,0,0,0.049366047715882704,20.684373992954853,0)" xlink:href="#aD"/><use transform="matrix(0.049366047715882704,0,0,0.049366047715882704,31.495538442733164,0)" xlink:href="#aI"/><use transform="matrix(0.049366047715882704,0,0,0.049366047715882704,37.3700981209232,0)" xlink:href="#ao"/><use transform="matrix(0.049366047715882704,0,0,0.049366047715882704,42.306702892511474,0)" xlink:href="#ar"/><use transform="matrix(0.049366047715882704,0,0,0.049366047715882704,49.21794957273505,0)" xlink:href="#at"/><use transform="matrix(0.049366047715882704,0,0,0.049366047715882704,65.01508484181751,0)" xlink:href="#au"/><use transform="matrix(0.049366047715882704,0,0,0.049366047715882704,74.88829438499405,0)" xlink:href="#aq"/><use transform="matrix(0.049366047715882704,0,0,0.049366047715882704,80.7628540631841,0)" xlink:href="#ao"/><use transform="matrix(0.049366047715882704,0,0,0.049366047715882704,85.69945883477236,0)" xlink:href="#az"/><use transform="matrix(0.049366047715882704,0,0,0.049366047715882704,96.51062328455068,0)" xlink:href="#aD"/></g><g id="z"><use transform="matrix(0.049366047715882704,0,0,0.049366047715882704,0,0)" xlink:href="#aC"/><use transform="matrix(0.049366047715882704,0,0,0.049366047715882704,11.847851451811849,0)" xlink:href="#am"/><use transform="matrix(0.049366047715882704,0,0,0.049366047715882704,21.72106099498839,0)" xlink:href="#aq"/></g><path fill="#3a414a" d="M135-194c52 0 70 43 70 98 0 56-19 99-73 100-30 1-46-15-58-35L72 0H24l1-261h50v104c11-23 29-37 60-37zM114-30c31 0 40-27 40-66 0-37-7-63-39-63s-41 28-41 65c0 36 8 64 40 64" id="aM"/><g id="A"><use transform="matrix(0.049366047715882704,0,0,0.049366047715882704,0,0)" xlink:href="#aM"/><use transform="matrix(0.049366047715882704,0,0,0.049366047715882704,10.811164449778312,0)" xlink:href="#aJ"/><use transform="matrix(0.049366047715882704,0,0,0.049366047715882704,21.622328899556624,0)" xlink:href="#aA"/><use transform="matrix(0.049366047715882704,0,0,0.049366047715882704,32.43349334933494,0)" xlink:href="#an"/><use transform="matrix(0.049366047715882704,0,0,0.049366047715882704,43.24465779911325,0)" xlink:href="#am"/><use transform="matrix(0.049366047715882704,0,0,0.049366047715882704,53.11786734228979,0)" xlink:href="#aq"/></g><g id="B"><use transform="matrix(0.049366047715882704,0,0,0.049366047715882704,0,0)" xlink:href="#as"/><use transform="matrix(0.049366047715882704,0,0,0.049366047715882704,5.8745596781900415,0)" xlink:href="#ao"/><use transform="matrix(0.049366047715882704,0,0,0.049366047715882704,10.811164449778312,0)" xlink:href="#aD"/><use transform="matrix(0.049366047715882704,0,0,0.049366047715882704,21.622328899556624,0)" xlink:href="#aG"/><use transform="matrix(0.049366047715882704,0,0,0.049366047715882704,31.495538442733164,0)" xlink:href="#az"/><use transform="matrix(0.049366047715882704,0,0,0.049366047715882704,42.306702892511474,0)" xlink:href="#at"/><use transform="matrix(0.049366047715882704,0,0,0.049366047715882704,58.10383816159394,0)" xlink:href="#am"/><use transform="matrix(0.049366047715882704,0,0,0.049366047715882704,67.97704770477048,0)" xlink:href="#aw"/></g><g id="C"><use transform="matrix(0.049366047715882704,0,0,0.049366047715882704,0,0)" xlink:href="#am"/><use transform="matrix(0.049366047715882704,0,0,0.049366047715882704,9.873209543176541,0)" xlink:href="#aK"/><use transform="matrix(0.049366047715882704,0,0,0.049366047715882704,19.746419086353082,0)" xlink:href="#ax"/><use transform="matrix(0.049366047715882704,0,0,0.049366047715882704,30.5575835361314,0)" xlink:href="#am"/><use transform="matrix(0.049366047715882704,0,0,0.049366047715882704,40.43079307930794,0)" xlink:href="#aD"/><use transform="matrix(0.049366047715882704,0,0,0.049366047715882704,51.24195752908625,0)" xlink:href="#ap"/><use transform="matrix(0.049366047715882704,0,0,0.049366047715882704,61.1151670722628,0)" xlink:href="#am"/><use transform="matrix(0.049366047715882704,0,0,0.049366047715882704,70.98837661543934,0)" xlink:href="#ap"/><use transform="matrix(0.049366047715882704,0,0,0.049366047715882704,80.86158615861588,0)" xlink:href="#aw"/></g><g id="D"><use transform="matrix(0.049366047715882704,0,0,0.049366047715882704,0,0)" xlink:href="#an"/><use transform="matrix(0.049366047715882704,0,0,0.049366047715882704,10.811164449778312,0)" xlink:href="#az"/><use transform="matrix(0.049366047715882704,0,0,0.049366047715882704,21.622328899556624,0)" xlink:href="#au"/><use transform="matrix(0.049366047715882704,0,0,0.049366047715882704,31.495538442733164,0)" xlink:href="#av"/><use transform="matrix(0.049366047715882704,0,0,0.049366047715882704,36.432143214321435,0)" xlink:href="#ap"/><use transform="matrix(0.049366047715882704,0,0,0.049366047715882704,46.30535275749798,0)" xlink:href="#aB"/></g><g id="E"><use transform="matrix(0.049366047715882704,0,0,0.049366047715882704,0,0)" xlink:href="#aJ"/><use transform="matrix(0.049366047715882704,0,0,0.049366047715882704,10.811164449778312,0)" xlink:href="#ax"/><use transform="matrix(0.049366047715882704,0,0,0.049366047715882704,21.622328899556624,0)" xlink:href="#aA"/><use transform="matrix(0.049366047715882704,0,0,0.049366047715882704,32.43349334933494,0)" xlink:href="#au"/><use transform="matrix(0.049366047715882704,0,0,0.049366047715882704,42.30670289251148,0)" xlink:href="#aq"/><use transform="matrix(0.049366047715882704,0,0,0.049366047715882704,48.18126257070152,0)" xlink:href="#am"/><use transform="matrix(0.049366047715882704,0,0,0.049366047715882704,58.054472113878056,0)" xlink:href="#aA"/></g><g id="F"><use transform="matrix(0.049366047715882704,0,0,0.049366047715882704,0,0)" xlink:href="#aM"/><use transform="matrix(0.049366047715882704,0,0,0.049366047715882704,10.811164449778312,0)" xlink:href="#aJ"/><use transform="matrix(0.049366047715882704,0,0,0.049366047715882704,21.622328899556624,0)" xlink:href="#aA"/><use transform="matrix(0.049366047715882704,0,0,0.049366047715882704,32.43349334933494,0)" xlink:href="#an"/><use transform="matrix(0.049366047715882704,0,0,0.049366047715882704,43.24465779911325,0)" xlink:href="#am"/><use transform="matrix(0.049366047715882704,0,0,0.049366047715882704,53.11786734228979,0)" xlink:href="#aq"/></g><path fill="#3a414a" d="M136-208V0H84v-208H4v-40h212v40h-80" id="aN"/><g id="G"><use transform="matrix(0.049366047715882704,0,0,0.049366047715882704,0,0)" xlink:href="#aN"/><use transform="matrix(0.049366047715882704,0,0,0.049366047715882704,9.823843495460657,0)" xlink:href="#ar"/><use transform="matrix(0.049366047715882704,0,0,0.049366047715882704,16.735090175684235,0)" xlink:href="#au"/><use transform="matrix(0.049366047715882704,0,0,0.049366047715882704,26.608299718860778,0)" xlink:href="#aG"/><use transform="matrix(0.049366047715882704,0,0,0.049366047715882704,36.48150926203732,0)" xlink:href="#aH"/></g><g id="H"><use transform="matrix(0.049366047715882704,0,0,0.049366047715882704,0,0)" xlink:href="#ap"/><use transform="matrix(0.049366047715882704,0,0,0.049366047715882704,9.873209543176541,0)" xlink:href="#ax"/><use transform="matrix(0.049366047715882704,0,0,0.049366047715882704,20.684373992954853,0)" xlink:href="#am"/><use transform="matrix(0.049366047715882704,0,0,0.049366047715882704,30.5575835361314,0)" xlink:href="#aD"/><use transform="matrix(0.049366047715882704,0,0,0.049366047715882704,41.36874798590971,0)" xlink:href="#aA"/><use transform="matrix(0.049366047715882704,0,0,0.049366047715882704,52.17991243568802,0)" xlink:href="#ao"/><use transform="matrix(0.049366047715882704,0,0,0.049366047715882704,57.11651720727629,0)" xlink:href="#aD"/><use transform="matrix(0.049366047715882704,0,0,0.049366047715882704,67.9276816570546,0)" xlink:href="#an"/></g><g id="I"><use transform="matrix(0.049366047715882704,0,0,0.049366047715882704,0,0)" xlink:href="#as"/><use transform="matrix(0.049366047715882704,0,0,0.049366047715882704,5.8745596781900415,0)" xlink:href="#au"/><use transform="matrix(0.049366047715882704,0,0,0.049366047715882704,15.747769221366582,0)" xlink:href="#at"/><use transform="matrix(0.049366047715882704,0,0,0.049366047715882704,31.54490449044905,0)" xlink:href="#az"/><use transform="matrix(0.049366047715882704,0,0,0.049366047715882704,42.35606894022736,0)" xlink:href="#aJ"/><use transform="matrix(0.049366047715882704,0,0,0.049366047715882704,53.16723339000567,0)" xlink:href="#aD"/><use transform="matrix(0.049366047715882704,0,0,0.049366047715882704,63.97839783978398,0)" xlink:href="#aq"/><use transform="matrix(0.049366047715882704,0,0,0.049366047715882704,69.85295751797402,0)" xlink:href="#aw"/></g><path fill="#3a414a" d="M123 10C108 53 80 86 19 72V37c35 8 53-11 59-39L3-190h52l48 148c12-52 28-100 44-148h51" id="aO"/><g id="J"><use transform="matrix(0.049366047715882704,0,0,0.049366047715882704,0,0)" xlink:href="#aG"/><use transform="matrix(0.049366047715882704,0,0,0.049366047715882704,9.873209543176541,0)" xlink:href="#au"/><use transform="matrix(0.049366047715882704,0,0,0.049366047715882704,19.746419086353082,0)" xlink:href="#aq"/><use transform="matrix(0.049366047715882704,0,0,0.049366047715882704,25.620978764543125,0)" xlink:href="#am"/><use transform="matrix(0.049366047715882704,0,0,0.049366047715882704,35.49418830771967,0)" xlink:href="#an"/><use transform="matrix(0.049366047715882704,0,0,0.049366047715882704,46.30535275749798,0)" xlink:href="#az"/><use transform="matrix(0.049366047715882704,0,0,0.049366047715882704,57.11651720727629,0)" xlink:href="#ar"/><use transform="matrix(0.049366047715882704,0,0,0.049366047715882704,64.02776388749987,0)" xlink:href="#aO"/><use transform="matrix(0.049366047715882704,0,0,0.049366047715882704,73.90097343067642,0)" xlink:href="#aB"/></g><g id="K"><use transform="matrix(0.049366047715882704,0,0,0.049366047715882704,0,0)" xlink:href="#aE"/><use transform="matrix(0.049366047715882704,0,0,0.049366047715882704,12.78580635841362,0)" xlink:href="#az"/><use transform="matrix(0.049366047715882704,0,0,0.049366047715882704,23.596970808191934,0)" xlink:href="#at"/><use transform="matrix(0.049366047715882704,0,0,0.049366047715882704,39.3941060772744,0)" xlink:href="#ax"/><use transform="matrix(0.049366047715882704,0,0,0.049366047715882704,50.20527052705271,0)" xlink:href="#au"/><use transform="matrix(0.049366047715882704,0,0,0.049366047715882704,60.07848007022925,0)" xlink:href="#ar"/><use transform="matrix(0.049366047715882704,0,0,0.049366047715882704,66.98972675045283,0)" xlink:href="#am"/></g><g id="L"><use transform="matrix(0.049366047715882704,0,0,0.049366047715882704,0,0)" xlink:href="#ay"/><use transform="matrix(0.049366047715882704,0,0,0.049366047715882704,13.822493360447156,0)" xlink:href="#ao"/><use transform="matrix(0.049366047715882704,0,0,0.049366047715882704,18.759098132035426,0)" xlink:href="#aq"/><use transform="matrix(0.049366047715882704,0,0,0.049366047715882704,24.63365781022547,0)" xlink:href="#aF"/></g><g id="M"><use transform="matrix(0.049366047715882704,0,0,0.049366047715882704,0,0)" xlink:href="#ap"/><use transform="matrix(0.049366047715882704,0,0,0.049366047715882704,9.873209543176541,0)" xlink:href="#ax"/><use transform="matrix(0.049366047715882704,0,0,0.049366047715882704,20.684373992954853,0)" xlink:href="#am"/><use transform="matrix(0.049366047715882704,0,0,0.049366047715882704,30.5575835361314,0)" xlink:href="#aD"/><use transform="matrix(0.049366047715882704,0,0,0.049366047715882704,41.36874798590971,0)" xlink:href="#aA"/><use transform="matrix(0.049366047715882704,0,0,0.049366047715882704,52.17991243568802,0)" xlink:href="#ao"/><use transform="matrix(0.049366047715882704,0,0,0.049366047715882704,57.11651720727629,0)" xlink:href="#aD"/><use transform="matrix(0.049366047715882704,0,0,0.049366047715882704,67.9276816570546,0)" xlink:href="#an"/></g><path fill="#3a414a" d="M84 4C32 4 15-41 15-95c0-55 18-99 73-99 29 0 47 12 58 34l2-30h48l-1 265h-49V-32C136-9 114 4 84 4zm21-34c32 0 41-29 41-66 0-36-9-64-40-64-33 0-39 30-40 65 0 43 13 65 39 65" id="aP"/><g id="N"><use transform="matrix(0.049366047715882704,0,0,0.049366047715882704,0,0)" xlink:href="#al"/><use transform="matrix(0.049366047715882704,0,0,0.049366047715882704,12.78580635841362,0)" xlink:href="#am"/><use transform="matrix(0.049366047715882704,0,0,0.049366047715882704,22.65901590159016,0)" xlink:href="#aP"/><use transform="matrix(0.049366047715882704,0,0,0.049366047715882704,33.47018035136847,0)" xlink:href="#aJ"/><use transform="matrix(0.049366047715882704,0,0,0.049366047715882704,44.28134480114678,0)" xlink:href="#am"/><use transform="matrix(0.049366047715882704,0,0,0.049366047715882704,54.15455434432332,0)" xlink:href="#ap"/><use transform="matrix(0.049366047715882704,0,0,0.049366047715882704,64.02776388749986,0)" xlink:href="#aq"/></g><g id="O"><use transform="matrix(0.049366047715882704,0,0,0.049366047715882704,0,0)" xlink:href="#aI"/><use transform="matrix(0.049366047715882704,0,0,0.049366047715882704,5.8745596781900415,0)" xlink:href="#ao"/><use transform="matrix(0.049366047715882704,0,0,0.049366047715882704,10.811164449778312,0)" xlink:href="#aD"/><use transform="matrix(0.049366047715882704,0,0,0.049366047715882704,21.622328899556624,0)" xlink:href="#au"/><use transform="matrix(0.049366047715882704,0,0,0.049366047715882704,31.495538442733164,0)" xlink:href="#aD"/><use transform="matrix(0.049366047715882704,0,0,0.049366047715882704,42.306702892511474,0)" xlink:href="#aG"/><use transform="matrix(0.049366047715882704,0,0,0.049366047715882704,52.17991243568802,0)" xlink:href="#ao"/><use transform="matrix(0.049366047715882704,0,0,0.049366047715882704,57.11651720727629,0)" xlink:href="#au"/><use transform="matrix(0.049366047715882704,0,0,0.049366047715882704,66.98972675045283,0)" xlink:href="#av"/></g><g id="P"><use transform="matrix(0.049366047715882704,0,0,0.049366047715882704,0,0)" xlink:href="#ar"/><use transform="matrix(0.049366047715882704,0,0,0.049366047715882704,6.911246680223578,0)" xlink:href="#am"/><use transform="matrix(0.049366047715882704,0,0,0.049366047715882704,16.78445622340012,0)" xlink:href="#ax"/><use transform="matrix(0.049366047715882704,0,0,0.049366047715882704,27.59562067317843,0)" xlink:href="#az"/><use transform="matrix(0.049366047715882704,0,0,0.049366047715882704,38.40678512295674,0)" xlink:href="#ar"/><use transform="matrix(0.049366047715882704,0,0,0.049366047715882704,45.31803180318032,0)" xlink:href="#aq"/></g><g id="Q"><use transform="matrix(0.049366047715882704,0,0,0.049366047715882704,0,0)" xlink:href="#as"/><use transform="matrix(0.049366047715882704,0,0,0.049366047715882704,5.8745596781900415,0)" xlink:href="#aq"/><use transform="matrix(0.049366047715882704,0,0,0.049366047715882704,11.749119356380083,0)" xlink:href="#ao"/><use transform="matrix(0.049366047715882704,0,0,0.049366047715882704,16.685724127968353,0)" xlink:href="#at"/><use transform="matrix(0.049366047715882704,0,0,0.049366047715882704,32.48285939705082,0)" xlink:href="#am"/></g><g id="R"><use transform="matrix(0.049366047715882704,0,0,0.049366047715882704,0,0)" xlink:href="#ar"/><use transform="matrix(0.049366047715882704,0,0,0.049366047715882704,6.911246680223578,0)" xlink:href="#au"/><use transform="matrix(0.049366047715882704,0,0,0.049366047715882704,16.78445622340012,0)" xlink:href="#aD"/><use transform="matrix(0.049366047715882704,0,0,0.049366047715882704,27.59562067317843,0)" xlink:href="#an"/><use transform="matrix(0.049366047715882704,0,0,0.049366047715882704,38.40678512295674,0)" xlink:href="#am"/><use transform="matrix(0.049366047715882704,0,0,0.049366047715882704,48.279994666133284,0)" xlink:href="#aw"/></g><g id="S"><use transform="matrix(0.049366047715882704,0,0,0.049366047715882704,0,0)" xlink:href="#aq"/><use transform="matrix(0.049366047715882704,0,0,0.049366047715882704,5.8745596781900415,0)" xlink:href="#aO"/><use transform="matrix(0.049366047715882704,0,0,0.049366047715882704,15.747769221366582,0)" xlink:href="#ax"/><use transform="matrix(0.049366047715882704,0,0,0.049366047715882704,26.558933671144896,0)" xlink:href="#am"/><use transform="matrix(0.049366047715882704,0,0,0.049366047715882704,36.432143214321435,0)" xlink:href="#aB"/></g><g id="T"><use transform="matrix(0.049366047715882704,0,0,0.049366047715882704,0,0)" xlink:href="#ar"/><use transform="matrix(0.049366047715882704,0,0,0.049366047715882704,6.911246680223578,0)" xlink:href="#am"/><use transform="matrix(0.049366047715882704,0,0,0.049366047715882704,16.78445622340012,0)" xlink:href="#ax"/><use transform="matrix(0.049366047715882704,0,0,0.049366047715882704,27.59562067317843,0)" xlink:href="#az"/><use transform="matrix(0.049366047715882704,0,0,0.049366047715882704,38.40678512295674,0)" xlink:href="#ar"/><use transform="matrix(0.049366047715882704,0,0,0.049366047715882704,45.31803180318032,0)" xlink:href="#aq"/></g><g id="U"><use transform="matrix(0.049366047715882704,0,0,0.049366047715882704,0,0)" xlink:href="#ar"/><use transform="matrix(0.049366047715882704,0,0,0.049366047715882704,6.911246680223578,0)" xlink:href="#am"/><use transform="matrix(0.049366047715882704,0,0,0.049366047715882704,16.78445622340012,0)" xlink:href="#aP"/><use transform="matrix(0.049366047715882704,0,0,0.049366047715882704,27.59562067317843,0)" xlink:href="#aJ"/><use transform="matrix(0.049366047715882704,0,0,0.049366047715882704,38.40678512295674,0)" xlink:href="#am"/><use transform="matrix(0.049366047715882704,0,0,0.049366047715882704,48.279994666133284,0)" xlink:href="#ap"/><use transform="matrix(0.049366047715882704,0,0,0.049366047715882704,58.15320420930983,0)" xlink:href="#aq"/></g><path fill="#3a414a" d="M140-251c80 0 125 45 125 126 0 70-33 111-92 124 6 28 34 38 68 31l-1 36C177 83 129 55 120 2 51-6 15-50 15-125c0-81 44-126 125-126zm-1 214c52 0 73-35 73-88 0-50-21-86-72-86-52 0-73 35-73 86s22 88 72 88" id="aQ"/><g id="V"><use transform="matrix(0.049366047715882704,0,0,0.049366047715882704,0,0)" xlink:href="#aQ"/><use transform="matrix(0.049366047715882704,0,0,0.049366047715882704,13.822493360447156,0)" xlink:href="#aJ"/><use transform="matrix(0.049366047715882704,0,0,0.049366047715882704,24.63365781022547,0)" xlink:href="#am"/><use transform="matrix(0.049366047715882704,0,0,0.049366047715882704,34.50686735340201,0)" xlink:href="#ar"/><use transform="matrix(0.049366047715882704,0,0,0.049366047715882704,41.418114033625585,0)" xlink:href="#aO"/></g><g id="W"><use transform="matrix(0.049366047715882704,0,0,0.049366047715882704,0,0)" xlink:href="#ar"/><use transform="matrix(0.049366047715882704,0,0,0.049366047715882704,6.911246680223578,0)" xlink:href="#am"/><use transform="matrix(0.049366047715882704,0,0,0.049366047715882704,16.78445622340012,0)" xlink:href="#ax"/><use transform="matrix(0.049366047715882704,0,0,0.049366047715882704,27.59562067317843,0)" xlink:href="#az"/><use transform="matrix(0.049366047715882704,0,0,0.049366047715882704,38.40678512295674,0)" xlink:href="#ar"/><use transform="matrix(0.049366047715882704,0,0,0.049366047715882704,45.31803180318032,0)" xlink:href="#aq"/></g></defs></g></svg>